<svg version="1.1" xmlns="http://www.w3.org/2000/svg" viewBox="0 0 2048 1639" preserveAspectRatio="xMidYMid meet">
<!-- Removed background white rect -->

<!-- Main Blue Elements #6086b6 (rgb 96,134,182) -->
<path fill="#6086b6" d="M 1709.99 137.217 C 1733.08 135.686 1746.57 157.62 1731.9 176.216 C 1722.69 187.898 1712.27 198.914 1702.33 210.011 L 1640.44 278.792 L 1431.07 513.99 L 1366.18 586.479 C 1356.55 597.253 1342.28 612.364 1333.69 623.234 L 1333.17 623.91 C 1363.9 651.779 1395.51 679.332 1425.59 707.806 L 1702.22 398.098 L 1781.23 309.15 C 1794.96 293.564 1808.29 277.696 1822.43 262.48 C 1831.47 252.74 1844.8 250.36 1855.33 259.379 C 1859.98 263.372 1862.83 269.065 1863.24 275.181 C 1863.58 280.462 1862.22 285.712 1859.35 290.158 C 1852.94 300.145 1818.77 337.268 1809.78 347.364 C 1776.68 384.865 1743.37 422.174 1709.84 459.291 L 1479.17 718.525 L 1419.73 785.504 C 1409.88 796.59 1399.77 810.298 1388.08 819.356 C 1379.62 825.907 1267.17 872.897 1257.66 873.914 C 1248.13 874.933 1241.47 869.27 1234.59 863.713 C 1227.79 871.016 1204.41 901.779 1194.13 903.132 C 1171.21 906.15 1157.18 885.362 1172.38 865.062 C 1179.95 854.964 1190.42 843.698 1199.67 833.323 C 1191.19 825.571 1185.65 818.368 1189.07 806.386 C 1201.41 764.17 1213.77 714.748 1228.28 673.964 C 1231.47 664.995 1282.5 609.92 1291.36 599.997 L 1414.76 461.932 L 1605.33 248.358 C 1628 222.743 1650.84 197.287 1673.87 171.991 C 1683.29 161.561 1697.48 142 1709.99 137.217 z"/>
<path fill="#6086b6" d="M 640.51 266.444 C 652.758 265.516 663.765 268.017 669.941 279.967 C 673.495 286.815 674.029 294.836 671.417 302.095 C 664.135 321.771 639.893 318.426 623.015 319.013 C 481.778 323.928 470.695 402.989 470.741 521.554 L 470.849 619.074 C 470.956 691.213 474.87 773.956 424.009 831.98 C 408.035 850.205 388.895 859.548 367.231 869.137 C 390.882 879.177 408.623 888.328 425.601 908.503 C 474.276 966.343 470.842 1048.23 470.791 1118.63 L 470.753 1212.45 C 470.745 1331.12 476.541 1415.35 621.004 1419.68 C 634.483 1420.08 654.817 1418.04 665.025 1427.75 C 670.035 1432.59 672.934 1439.21 673.092 1446.17 C 673.314 1453.06 670.727 1459.74 665.924 1464.68 C 656.809 1473.91 645.457 1472.84 633.751 1472.84 C 448.046 1463.21 417.063 1383.29 417.133 1212.37 L 417.225 1085.99 C 417.086 988.38 409.047 911.258 293.352 894.662 C 292.104 877.942 292.469 861.158 293.34 844.435 C 304.052 842.469 313.95 840.859 324.481 837.892 C 417.852 811.587 417.32 721.976 417.232 643.212 L 417.124 537.688 C 417.119 466.737 415.395 380.943 466.182 325.081 C 512.071 274.606 576.883 269.1 640.51 266.444 z"/>
<path fill="#6086b6" d="M 734.615 672.411 L 1050.84 672.41 L 1050.98 727.271 C 1046.27 733.884 1034.74 746.472 1029.08 753.022 L 986.795 801.88 L 873.844 931.275 C 853.377 954.688 829.156 981.099 809.861 1005.1 L 1056.19 1005.12 C 1056.26 1015.23 1057.07 1057.15 1055.74 1064.8 C 944.807 1066.02 831.534 1064.96 720.439 1064.88 C 719.989 1048.75 719.893 1024.97 720.912 1009.12 C 741.079 983.17 773.455 948.059 795.462 922.677 L 961.783 731.647 C 887.777 733.23 808.871 731.94 734.497 731.926 C 734.256 712.088 734.295 692.248 734.615 672.411 z"/>
<path fill="#6086b6" d="M 1597.69 664.926 C 1598.48 665.861 1598.84 667.707 1598.85 668.914 C 1599.44 763.619 1618.02 827.437 1722.7 844.44 C 1724.99 855.765 1724.28 883.218 1722.96 894.737 C 1602.69 907.783 1598.87 1002.16 1599 1097.12 L 1599.12 1204.11 C 1599.11 1276.28 1600.96 1361.29 1547.56 1417.45 C 1501.94 1465.43 1432.13 1471.22 1370.13 1472.8 C 1359.52 1471.86 1351.07 1468.65 1345.98 1458.5 C 1342.61 1451.84 1342.24 1444.06 1344.96 1437.11 C 1352.85 1416.83 1376.55 1420.44 1394.02 1419.86 C 1530.2 1415.35 1545.33 1344.56 1545.4 1226.5 L 1545.44 1119.86 C 1545.56 1052.45 1541.76 978.757 1581.73 920.38 C 1599.61 894.263 1620.19 881.519 1648.7 869.534 C 1580.33 842.251 1556.86 788.166 1548.22 720.002 C 1559.22 710.035 1586.52 677.576 1597.69 664.926 z"/>
<path fill="#6086b6" d="M 1591.02 398.128 C 1603.14 397.047 1613.19 399.615 1618.6 411.408 C 1626.61 425.367 1607.89 447.117 1597.47 456.579 C 1573.75 478.128 1487.55 589.44 1466.64 597.123 C 1462.29 597.77 1457.84 597.469 1453.69 595.965 C 1447.73 593.806 1442.73 589.534 1440.06 583.753 C 1437.27 577.714 1437.63 570.654 1440.07 564.556 C 1443.48 556.03 1569.22 416.3 1580.99 404.76 C 1584.04 401.769 1587.17 399.885 1591.02 398.128 z"/>
<path fill="#6086b6" d="M 1183.42 963.424 C 1197.58 963.69 1208.95 964.938 1220.9 973.88 C 1243.66 990.915 1245.11 1033.35 1228.59 1054.9 C 1219.35 1066.96 1206.44 1070.35 1191.89 1072 C 1177.16 1072.27 1161.64 1071.51 1149.83 1061.44 C 1128.57 1043.32 1128.28 999.565 1146.03 979.044 C 1155.73 967.826 1169.11 964.47 1183.42 963.424 z"/>
<path fill="#6086b6" d="M 1362.06 267.102 C 1399.32 263.297 1462.57 272.647 1497.7 287.771 C 1488.78 298.357 1478.61 309.326 1469.41 319.967 L 1460.1 330.124 C 1441.43 323.893 1421.25 321.047 1401.61 319.615 C 1388.21 318.453 1373.57 320.257 1360.54 316.653 C 1346.33 312.722 1341.68 298.814 1344.31 285.547 C 1346.25 275.792 1353.56 270.696 1362.06 267.102 z"/>

<!-- White Highlights/Negative Space -->
<path fill="#ffffff" d="M 1301.75 658.669 C 1305.06 661.196 1308.69 665.104 1311.89 667.955 C 1339.64 692.623 1366.73 718.533 1395.06 742.477 C 1389.1 750.364 1369.2 773.216 1361.76 779.098 C 1351.01 787.602 1324 797.073 1310.32 802.723 C 1293.3 809.544 1276.39 816.638 1259.6 824.004 C 1255.61 819.236 1243.54 808.27 1238.45 803.325 C 1250.45 772.189 1257.21 725.475 1271.14 694.67 C 1274.21 687.885 1295.66 665.477 1301.75 658.669 z"/>
</svg>
